Coordinates
version=1
nRows=36
nColumns=30
inDegrees=yes

Units are S.I. units (second, meters, Newtons, ...)
Angles are in degrees.

endheader
time	floatyaw	floatroll	floatpitch	floatx	floaty	floatz	pro_sup_l	deviation_l	flexion_l	cmc_flexion_l	cmc_abduction_l	mp_flexion_l	ip_flexion_l	2mcp_flexion_l	2mcp_abduction_l	2pm_flexion_l	2md_flexion_l	3mcp_flexion_l	3mcp_abduction_l	3pm_flexion_l	3md_flexion_l	4mcp_flexion_l	4mcp_abduction_l	4pm_flexion_l	4md_flexion_l	5mcp_flexion_l	5mcp_abduction_l	5pm_flexion_l	5md_flexion_l
-1.495000	-160.147433	-5.066637	-73.570646	0.081615	-0.181986	-0.017284	101.851614	5.167289	-0.186490	17.185175	11.169977	-25.150399	-42.362676	29.120898	6.752017	43.246616	29.607360	23.662097	4.213701	44.570989	29.626585	12.711614	-4.255625	52.257652	35.999761	0.526560	-8.494772	61.461859	43.049794
-1.485000	-160.147433	-5.066637	-73.570646	0.081613	-0.181983	-0.017286	101.865801	5.172163	-0.186376	17.168119	11.174756	-25.174300	-42.390238	29.127530	6.756715	43.249430	29.595952	23.648051	4.217698	44.588838	29.628725	12.712282	-4.256358	52.261645	35.993224	0.532018	-8.496400	61.463693	43.047091
-1.475000	-160.147433	-5.066637	-73.570646	0.081615	-0.181978	-0.017287	101.878183	5.178172	-0.182197	17.150647	11.172533	-25.201067	-42.419189	29.130382	6.759965	43.239351	29.578722	23.634002	4.221277	44.586999	29.619713	12.706874	-4.256975	52.263559	35.986128	0.524923	-8.495916	61.467375	43.048007
-1.465000	-160.147433	-5.066637	-73.570646	0.081620	-0.181972	-0.017287	101.887239	5.184081	-0.174862	17.131785	11.175422	-25.226714	-42.446163	29.130775	6.762558	43.221092	29.560270	23.622998	4.223946	44.569249	29.603836	12.696470	-4.256856	52.265624	35.981275	0.508306	-8.493078	61.473165	43.052711
-1.455000	-160.147433	-5.066637	-73.570646	0.081625	-0.181966	-0.017286	101.891290	5.188544	-0.165866	17.110619	11.191411	-25.248813	-42.469572	29.130502	6.764619	43.199988	29.544539	23.616383	4.225767	44.542127	29.586028	12.682821	-4.256034	52.269829	35.980474	0.486270	-8.488551	61.481262	43.060731
-1.445000	-160.147433	-5.066637	-73.570646	0.081630	-0.181962	-0.017283	101.889427	5.190851	-0.156808	17.086231	11.221592	-25.266155	-42.488337	29.130757	6.765214	43.181497	29.534832	23.612824	4.227313	44.512891	29.570774	12.667206	-4.255264	52.277675	35.984518	0.462806	-8.484042	61.491739	43.071258
-1.435000	-160.147433	-5.066637	-73.570646	0.081634	-0.181962	-0.017279	101.882941	5.191605	-0.148930	17.058249	11.259813	-25.277956	-42.500583	29.131676	6.762934	43.170316	29.533551	23.609286	4.229357	44.487081	29.560912	12.650213	-4.255573	52.289768	35.993145	0.441207	-8.481715	61.504232	43.083116
-1.425000	-160.147433	-5.066637	-73.570646	0.081638	-0.181963	-0.017275	101.875857	5.192702	-0.142778	17.027562	11.295363	-25.283608	-42.503819	29.132717	6.757085	43.168906	29.541277	23.603299	4.232417	44.466717	29.556693	12.632429	-4.257592	52.305449	36.004941	0.423946	-8.483138	61.517567	43.094479
-1.415000	-160.147433	-5.066637	-73.570646	0.081642	-0.181964	-0.017270	101.873646	5.196407	-0.138121	16.996428	11.318238	-25.282974	-42.496485	29.133516	6.748668	43.176256	29.555816	23.594856	4.236409	44.450285	29.555868	12.615291	-4.261174	52.322816	36.017470	0.412787	-8.488404	61.529577	43.102720
-1.405000	-160.147433	-5.066637	-73.570646	0.081646	-0.181962	-0.017266	101.880544	5.203947	-0.134222	16.967648	11.324670	-25.276646	-42.479458	29.134558	6.740396	43.187903	29.572150	23.586621	4.240585	44.434663	29.555029	12.601255	-4.265521	52.339304	36.027833	0.408810	-8.495867	61.537295	43.104825
-1.395000	-160.147433	-5.066637	-73.570646	0.081651	-0.181954	-0.017263	101.897062	5.214497	-0.130350	16.943236	11.319623	-25.265980	-42.456360	29.137229	6.735569	43.197492	29.583724	23.582358	4.243836	44.417666	29.551482	12.592895	-4.269662	52.352530	36.033527	0.412042	-8.502612	61.537676	43.098496
-1.385000	-160.147433	-5.066637	-73.570646	0.081655	-0.181942	-0.017262	101.919268	5.225233	-0.126271	16.923375	11.314311	-25.253168	-42.432509	29.143250	6.736408	43.199274	29.584736	23.584709	4.245211	44.399580	29.544551	12.591423	-4.272893	52.361039	36.033249	0.420808	-8.505455	61.528776	43.083499
-1.375000	-160.147433	-5.066637	-73.570646	0.081659	-0.181929	-0.017264	101.940339	5.232529	-0.122430	16.906193	11.320015	-25.241391	-42.413105	29.153803	6.742855	43.190529	29.572555	23.593755	4.244372	44.383006	29.535707	12.595667	-4.274905	52.364690	36.027295	0.431546	-8.502121	61.510845	43.062371
-1.365000	-160.147433	-5.066637	-73.570646	0.081662	-0.181918	-0.017268	101.953530	5.233639	-0.119702	16.888354	11.342121	-25.234469	-42.401387	29.168760	6.752569	43.172947	29.549183	23.607096	4.241673	44.371586	29.527723	12.602348	-4.275629	52.364566	36.017375	0.439779	-8.492140	61.486524	43.039790
-1.355000	-160.147433	-5.066637	-73.570646	0.081664	-0.181914	-0.017275	101.954929	5.227940	-0.118937	16.866224	11.378252	-25.235518	-42.397573	29.186476	6.762101	43.152460	29.520980	23.621184	4.237820	44.368712	29.523513	12.607660	-4.275052	52.362497	36.005954	0.442162	-8.477104	61.459921	43.020774
-1.345000	-160.147433	-5.066637	-73.570646	0.081663	-0.181918	-0.017282	101.944741	5.217175	-0.120639	16.837404	11.421335	-25.245172	-42.399275	29.204367	6.768517	43.137537	29.496568	23.632898	4.233383	44.376964	29.525289	12.609250	-4.273218	52.360435	35.995441	0.438445	-8.460189	61.435281	43.008752
-1.335000	-160.147433	-5.066637	-73.570646	0.081661	-0.181927	-0.017289	101.926818	5.204729	-0.124904	16.802218	11.464709	-25.260750	-42.403309	29.219932	6.770613	43.136437	29.483712	23.640317	4.228536	44.398127	29.534212	12.607317	-4.270369	52.359895	35.987522	0.431834	-8.445154	61.416206	43.004649
-1.325000	-160.147433	-5.066637	-73.570646	0.081656	-0.181940	-0.017293	101.907064	5.194451	-0.131386	16.764267	11.505100	-25.277311	-42.407752	29.231461	6.769197	43.154150	29.486436	23.642402	4.223179	44.433092	29.550365	12.604102	-4.267020	52.361446	35.982795	0.427115	-8.435163	61.405551	43.007270
-1.315000	-160.147433	-5.066637	-73.570646	0.081649	-0.181952	-0.017293	101.891532	5.189511	-0.139145	16.729321	11.541714	-25.290058	-42.412845	29.238009	6.766440	43.190107	29.503596	23.638204	4.217235	44.481294	29.572865	12.602159	-4.263827	52.364362	35.980711	0.427629	-8.431870	61.405273	43.014392
-1.305000	-160.147433	-5.066637	-73.570646	0.081641	-0.181960	-0.017290	101.884804	5.191575	-0.146526	16.702741	11.573476	-25.296570	-42.420234	29.238969	6.764799	43.237706	29.529459	23.626592	4.210856	44.540055	29.600021	12.602638	-4.261283	52.366698	35.979878	0.433150	-8.435030	61.415718	43.023744
-1.295000	-160.147433	-5.066637	-73.570646	0.081634	-0.181963	-0.017285	101.888905	5.200402	-0.151322	16.686798	11.597769	-25.297574	-42.431267	29.233851	6.766062	43.286101	29.555978	23.606912	4.204423	44.604392	29.629479	12.604642	-4.259428	52.365959	35.978681	0.440138	-8.442679	61.434666	43.033446
-1.285000	-160.147433	-5.066637	-73.570646	0.081628	-0.181958	-0.017279	101.902860	5.213951	-0.151235	16.679431	11.611872	-25.296062	-42.445445	29.222561	6.770844	43.323774	29.575760	23.580024	4.198412	44.667536	29.658280	12.605860	-4.257799	52.360132	35.975992	0.444013	-8.451718	61.457035	43.041997
-1.275000	-160.147433	-5.066637	-73.570646	0.081626	-0.181946	-0.017274	101.923006	5.229009	-0.144551	16.675159	11.615315	-25.295447	-42.459748	29.205921	6.778470	43.342595	29.584551	23.548824	4.193259	44.722031	29.682932	12.603880	-4.255700	52.348565	35.971620	0.441788	-8.458712	61.475945	43.048134
-1.265000	-160.147433	-5.066637	-73.570646	0.081627	-0.181928	-0.017271	101.944164	5.242240	-0.130896	16.667525	11.610808	-25.297651	-42.468969	29.186074	6.787183	43.340757	29.582406	23.517745	4.189267	44.761312	29.699869	12.597469	-4.252665	52.332306	35.966288	0.433509	-8.460818	61.485028	43.050871
-1.255000	-160.147433	-5.066637	-73.570646	0.081631	-0.181907	-0.017269	101.961521	5.251311	-0.111831	16.651686	11.603119	-25.301998	-42.467073	29.166574	6.794650	43.323359	29.573265	23.491518	4.186564	44.781520	29.706507	12.587370	-4.248821	52.313833	35.961219	0.422063	-8.456635	61.481014	43.049832
-1.245000	-160.147433	-5.066637	-73.570646	0.081637	-0.181885	-0.017268	101.972461	5.255594	-0.090859	16.625869	11.596931	-25.305609	-42.449461	29.151980	6.798747	43.300403	29.563215	23.473856	4.185134	44.782887	29.702470	12.576349	-4.244912	52.296346	35.957566	0.411790	-8.446613	61.465272	43.045663
-1.235000	-160.147433	-5.066637	-73.570646	0.081643	-0.181866	-0.017268	101.977316	5.256030	-0.072520	16.591409	11.595216	-25.305259	-42.415448	29.146680	6.798466	43.283026	29.558193	23.466566	4.184897	44.769847	29.690114	12.568361	-4.241986	52.282962	35.956004	0.406657	-8.432787	61.443384	43.040113
-1.225000	-160.147433	-5.066637	-73.570646	0.081646	-0.181853	-0.017268	101.978530	5.254241	-0.060799	16.551847	11.598991	-25.299550	-42.369474	29.153039	6.794590	43.279487	29.562020	23.469265	4.185792	44.749641	29.673923	12.566916	-4.241002	52.276209	35.956734	0.408643	-8.417995	61.422850	43.035537
-1.215000	-160.147433	-5.066637	-73.570646	0.081645	-0.181846	-0.017269	101.978822	5.251467	-0.057578	16.511762	11.608263	-25.289948	-42.319902	29.169785	6.789691	43.292446	29.575428	23.479609	4.187746	44.730123	29.659083	12.573249	-4.242514	52.277962	35.959889	0.416899	-8.404969	61.410041	43.033979
-1.205000	-160.147433	-5.066637	-73.570646	0.081641	-0.181845	-0.017271	101.979545	5.247958	-0.062002	16.475723	11.623081	-25.280179	-42.275880	29.191974	6.787196	43.318586	29.596278	23.494004	4.190548	44.717674	29.649942	12.585309	-4.246469	52.289474	35.965932	0.427970	-8.395630	61.408056	43.036530
-1.195000	-160.147433	-5.066637	-73.570646	0.081632	-0.181848	-0.017276	101.980085	5.243090	-0.071164	16.447393	11.643689	-25.274701	-42.244321	29.213131	6.789781	43.350676	29.620714	23.508733	4.193710	44.715778	29.648881	12.598364	-4.252107	52.311012	35.975610	0.436999	-8.390749	61.416497	43.043381
-1.185000	-160.147433	-5.066637	-73.570646	0.081622	-0.181854	-0.017284	101.978481	5.235980	-0.081694	16.428743	11.669790	-25.277222	-42.228782	29.228499	6.797936	43.381011	29.644684	23.521182	4.196520	44.724430	29.655834	12.607123	-4.258082	52.341068	35.989353	0.439494	-8.389947	61.432808	43.054368
-1.175000	-160.147433	-5.066637	-73.570646	0.081610	-0.181863	-0.017293	101.972758	5.226227	-0.091233	16.419411	11.699778	-25.289644	-42.230125	29.237326	6.809629	43.404329	29.665105	23.530516	4.198282	44.740501	29.668531	12.608180	-4.262897	52.375802	36.006526	0.432988	-8.391956	61.453786	43.069231
-1.165000	-160.147433	-5.066637	-73.570646	0.081599	-0.181874	-0.017305	101.962253	5.214407	-0.098901	16.416468	11.730830	-25.311281	-42.247399	29.242681	6.821325	43.418764	29.680255	23.537311	4.198637	44.759083	29.683395	12.601316	-4.265523	52.409437	36.025117	0.418009	-8.395018	61.476066	43.087154
-1.155000	-160.147433	-5.066637	-73.570646	0.081590	-0.181885	-0.017317	101.948219	5.202100	-0.104694	16.414937	11.759991	-25.338539	-42.277798	29.249023	6.829707	43.424937	29.689529	23.542399	4.197734	44.775454	29.696811	12.589044	-4.265822	52.435771	36.042155	0.397948	-8.397363	61.495746	43.106021
-1.145000	-160.147433	-5.066637	-73.570646	0.081584	-0.181895	-0.017328	101.933483	5.191428	-0.108567	16.409269	11.785546	-25.365637	-42.316123	29.259270	6.833076	43.424424	29.693067	23.545804	4.196147	44.786788	29.706260	12.575036	-4.264501	52.450142	36.054656	0.377788	-8.397735	61.508377	43.122356
